<?xml version="1.0" encoding="utf-8"?>
<!-- Generator: Adobe Illustrator 20.1.0, SVG Export Plug-In . SVG Version: 6.00 Build 0)  -->
<svg version="1.1" id="Livello_1" xmlns="http://www.w3.org/2000/svg" xmlns:xlink="http://www.w3.org/1999/xlink" x="0px" y="0px"
	 width="296px" height="209px" viewBox="0 0 296 209" style="enable-background:new 0 0 296 209;" xml:space="preserve">
<style type="text/css">
	.st0{fill:#8ECDD0;}
	.st1{fill:none;stroke:#FFFFFF;stroke-width:0.3548;stroke-miterlimit:10;}
	.st2{fill:none;stroke:#FFFFFF;stroke-width:0.3723;stroke-miterlimit:10;}
	.st3{fill:none;stroke:#FFFFFF;stroke-width:0.1955;stroke-miterlimit:10;}
	.st4{fill:#EDAA00;}
	.st5{fill:#FFFFFF;}
	.st6{fill:#E75300;}
	.st7{fill:#007481;}
	.st8{fill:#8C7965;}
</style>
<rect class="st0" width="296" height="209"/>
<line class="st1" x1="41" y1="209" x2="41" y2="170.2"/>
<line class="st1" x1="60.3" y1="209" x2="60.3" y2="170.2"/>
<line class="st1" x1="79.8" y1="209" x2="79.8" y2="170.2"/>
<line class="st1" x1="99.3" y1="209" x2="99.3" y2="170.2"/>
<line class="st1" x1="118.8" y1="209" x2="118.8" y2="170.2"/>
<line class="st1" x1="138.2" y1="209" x2="138.2" y2="170.2"/>
<line class="st1" x1="157.7" y1="209" x2="157.7" y2="170.2"/>
<line class="st1" x1="177" y1="209" x2="177" y2="170.2"/>
<line class="st1" x1="196.2" y1="209" x2="196.2" y2="170.2"/>
<line class="st1" x1="215.9" y1="209" x2="215.9" y2="170.2"/>
<line class="st1" x1="235.4" y1="209" x2="235.4" y2="170.2"/>
<line class="st1" x1="254.8" y1="209" x2="254.8" y2="170.2"/>
<g>
	<g>
		<line class="st2" x1="50.6" y1="162.7" x2="50.6" y2="182.7"/>
		<line class="st2" x1="70.1" y1="162.7" x2="70.1" y2="182.6"/>
		<line class="st2" x1="31.3" y1="162.7" x2="31.3" y2="182.6"/>
		<line class="st2" x1="89.6" y1="162.7" x2="89.6" y2="182.7"/>
		<line class="st2" x1="109" y1="162.7" x2="109" y2="182.6"/>
		<line class="st2" x1="128.5" y1="162.7" x2="128.5" y2="182.7"/>
		<line class="st2" x1="147.9" y1="162.7" x2="147.9" y2="182.7"/>
		<line class="st2" x1="167.4" y1="162.7" x2="167.4" y2="182.6"/>
		<line class="st2" x1="186.9" y1="162.7" x2="186.9" y2="182.7"/>
		<line class="st2" x1="206.3" y1="162.7" x2="206.3" y2="182.7"/>
		<line class="st2" x1="225.8" y1="162.7" x2="225.8" y2="182.7"/>
		<line class="st2" x1="245.3" y1="162.7" x2="245.3" y2="182.6"/>
		<line class="st2" x1="264.7" y1="162.7" x2="264.7" y2="182.7"/>
	</g>
	<g>
		<line class="st3" x1="24.3" y1="143.3" x2="0" y2="143.3"/>
		<line class="st3" x1="24.3" y1="123.9" x2="0" y2="123.9"/>
		<line class="st3" x1="24.3" y1="104.5" x2="0" y2="104.5"/>
		<line class="st3" x1="24.3" y1="85.1" x2="0" y2="85.1"/>
		<line class="st3" x1="24.3" y1="65.7" x2="0" y2="65.7"/>
		<line class="st3" x1="24.3" y1="46.2" x2="0" y2="46.2"/>
		<g>
			<line class="st3" x1="296" y1="143.3" x2="271.7" y2="143.3"/>
			<line class="st3" x1="296" y1="123.9" x2="271.7" y2="123.9"/>
			<line class="st3" x1="296" y1="104.5" x2="271.7" y2="104.5"/>
			<line class="st3" x1="296" y1="85.1" x2="271.7" y2="85.1"/>
			<line class="st3" x1="296" y1="65.7" x2="271.7" y2="65.7"/>
			<line class="st3" x1="296" y1="46.2" x2="271.7" y2="46.2"/>
		</g>
	</g>
	<g>
		<line class="st2" x1="50.6" y1="0" x2="50.6" y2="26.8"/>
		<line class="st2" x1="70.1" y1="0" x2="70.1" y2="26.8"/>
		<line class="st2" x1="31.3" y1="0" x2="31.3" y2="26.8"/>
		<line class="st2" x1="89.6" y1="0" x2="89.6" y2="26.8"/>
		<line class="st2" x1="109" y1="0" x2="109" y2="26.8"/>
		<line class="st2" x1="128.5" y1="0" x2="128.5" y2="26.8"/>
		<line class="st2" x1="147.9" y1="0" x2="147.9" y2="26.8"/>
		<line class="st2" x1="167.4" y1="0" x2="167.4" y2="26.8"/>
		<line class="st2" x1="186.9" y1="0" x2="186.9" y2="26.8"/>
		<line class="st2" x1="206.3" y1="0" x2="206.3" y2="26.8"/>
		<line class="st2" x1="225.8" y1="0" x2="225.8" y2="26.9"/>
		<line class="st2" x1="245.3" y1="0" x2="245.3" y2="26.8"/>
		<line class="st2" x1="264.7" y1="0" x2="264.7" y2="26.8"/>
	</g>
</g>
<rect x="45.8" y="187.6" class="st4" width="9.7" height="21.4"/>
<g>
	<path class="st5" d="M50,182.5c-0.4,0.4-0.3,0.9,0,1.3c0.3,0.3,0.9,0.3,1.3,0c0.3-0.3,0.3-0.9,0-1.3
		C50.9,182.2,50.3,182.2,50,182.5L50,182.5L50,182.5z"/>
</g>
<g>
	<g>
		<path class="st6" d="M55.5,197.3v-9.7h-9.7v9.7H55.5z"/>
		<polygon class="st5" points="50.6,195.9 54.1,192.5 54.1,192.5 50.7,189 50.6,189 47.2,192.5 47.2,192.5 47.2,192.5 		"/>
	</g>
</g>
<g id="INSERT_24_">
	<g id="CIRCLE_24_">
		<path class="st7" d="M49.5,192.5c0,0.6,0.5,1.2,1.2,1.2c0.6,0,1.2-0.5,1.2-1.2c0-0.6-0.5-1.2-1.2-1.2S49.5,191.8,49.5,192.5
			L49.5,192.5L49.5,192.5z"/>
	</g>
</g>
<rect x="26.4" y="187.6" class="st4" width="9.7" height="21.4"/>
<g>
	<polygon class="st5" points="31.7,181.8 31.7,182.7 32.6,182.7 32.6,183.6 31.7,183.6 31.7,184.5 30.8,184.5 30.8,183.6 
		29.9,183.6 29.9,182.7 30.8,182.7 30.8,181.8 	"/>
</g>
<path class="st8" d="M36.1,197.3v-9.7h-9.7v9.7H36.1z"/>
<g>
	<g>
		<g id="INSERT_23_">
			<g id="CIRCLE_23_">
				<path class="st5" d="M32,191.7c0.5,0.5,1.2,0.5,1.6,0c0.5-0.5,0.5-1.2,0-1.6c-0.5-0.5-1.2-0.5-1.6,0
					C31.6,190.5,31.6,191.2,32,191.7L32,191.7L32,191.7z"/>
			</g>
		</g>
		<g id="INSERT_22_">
			<g id="CIRCLE_22_">
				<path class="st5" d="M28.9,194.9c0.5,0.5,1.2,0.5,1.6,0c0.5-0.5,0.5-1.2,0-1.6c-0.5-0.5-1.2-0.5-1.6,0
					C28.4,193.7,28.4,194.4,28.9,194.9L28.9,194.9L28.9,194.9z"/>
			</g>
		</g>
	</g>
	<g>
		<g id="INSERT_21_">
			<g id="CIRCLE_21_">
				<path class="st5" d="M30.5,191.7c0.5-0.5,0.5-1.2,0-1.6c-0.5-0.5-1.2-0.5-1.6,0c-0.5,0.5-0.5,1.2,0,1.6
					C29.3,192.2,30.1,192.2,30.5,191.7L30.5,191.7L30.5,191.7z"/>
			</g>
		</g>
		<g id="INSERT_16_">
			<g id="CIRCLE_16_">
				<path class="st5" d="M33.7,194.9c0.5-0.5,0.5-1.2,0-1.6c-0.5-0.5-1.2-0.5-1.6,0c-0.5,0.5-0.5,1.2,0,1.6
					C32.5,195.3,33.2,195.3,33.7,194.9L33.7,194.9L33.7,194.9z"/>
			</g>
		</g>
	</g>
</g>
<rect x="65.1" y="187.6" class="st4" width="9.7" height="21.4"/>
<g>
	<polyline class="st5" points="70,181.6 71.6,183.2 70,184.8 68.4,183.2 	"/>
</g>
<g>
	<g>
		<path class="st6" d="M74.8,197.3v-9.7h-9.7v9.7H74.8z"/>
		<polygon class="st8" points="70,195.9 73.4,192.5 73.4,192.5 70,189 70,189 66.6,192.5 66.6,192.5 66.6,192.5 		"/>
	</g>
</g>
<rect x="143.1" y="187.6" class="st4" width="9.7" height="21.4"/>
<g>
	<polyline class="st5" points="147.9,181.6 149.5,183.2 147.9,184.8 146.4,183.2 	"/>
</g>
<g>
	<g>
		<path class="st6" d="M152.8,197.3v-9.7h-9.7v9.7H152.8z"/>
		<polygon class="st8" points="148,195.9 151.4,192.5 151.4,192.5 148,189 148,189 144.5,192.5 144.5,192.5 144.5,192.5 		"/>
	</g>
</g>
<rect x="84.7" y="187.6" class="st4" width="9.7" height="21.4"/>
<g>
	<path class="st5" d="M91.1,183.9c0-0.9-0.7-1.5-1.5-1.5c-0.9,0-1.5,0.7-1.5,1.5"/>
</g>
<path class="st7" d="M94.4,197.3v-9.7h-9.7v9.7H94.4z"/>
<g>
	<g>
		<g id="INSERT_15_">
			<g id="CIRCLE_15_">
				<path class="st5" d="M90.3,191.7c0.5,0.5,1.2,0.5,1.6,0c0.5-0.5,0.5-1.2,0-1.6c-0.5-0.5-1.2-0.5-1.6,0
					C89.9,190.5,89.9,191.2,90.3,191.7L90.3,191.7L90.3,191.7z"/>
			</g>
		</g>
		<g id="INSERT_14_">
			<g id="CIRCLE_14_">
				<path class="st5" d="M87.1,194.9c0.5,0.5,1.2,0.5,1.6,0c0.5-0.5,0.5-1.2,0-1.6c-0.5-0.5-1.2-0.5-1.6,0
					C86.7,193.7,86.7,194.4,87.1,194.9L87.1,194.9L87.1,194.9z"/>
			</g>
		</g>
	</g>
	<g>
		<g id="INSERT_13_">
			<g id="CIRCLE_13_">
				<path class="st5" d="M88.8,191.7c0.5-0.5,0.5-1.2,0-1.6c-0.5-0.5-1.2-0.5-1.6,0c-0.5,0.5-0.5,1.2,0,1.6
					C87.6,192.2,88.3,192.2,88.8,191.7L88.8,191.7L88.8,191.7z"/>
			</g>
		</g>
		<g id="INSERT_12_">
			<g id="CIRCLE_12_">
				<path class="st5" d="M92,194.9c0.5-0.5,0.5-1.2,0-1.6c-0.5-0.5-1.2-0.5-1.6,0c-0.5,0.5-0.5,1.2,0,1.6
					C90.8,195.3,91.5,195.3,92,194.9L92,194.9L92,194.9z"/>
			</g>
		</g>
	</g>
</g>
<rect x="104.2" y="187.6" class="st4" width="9.7" height="21.4"/>
<g>
	<polygon class="st5" points="109.5,181.8 109.5,182.7 110.4,182.7 110.4,183.6 109.5,183.6 109.5,184.5 108.6,184.5 108.6,183.6 
		107.7,183.6 107.7,182.7 108.6,182.7 108.6,181.8 	"/>
</g>
<g>
	<g>
		<path class="st6" d="M113.9,197.3v-9.7h-9.7v9.7H113.9z"/>
		<polygon class="st5" points="109,195.9 112.5,192.5 112.5,192.5 109,189 109,189 105.6,192.5 105.6,192.5 105.6,192.5 		"/>
	</g>
</g>
<g id="INSERT_11_">
	<g id="CIRCLE_11_">
		<path class="st7" d="M107.9,192.5c0,0.6,0.5,1.2,1.2,1.2s1.2-0.5,1.2-1.2c0-0.6-0.5-1.2-1.2-1.2S107.9,191.8,107.9,192.5
			L107.9,192.5L107.9,192.5z"/>
	</g>
</g>
<rect x="123.6" y="187.6" class="st4" width="9.7" height="21.4"/>
<g>
	<path class="st5" d="M127.8,182.5c-0.4,0.4-0.3,0.9,0,1.3c0.3,0.3,0.9,0.3,1.3,0c0.3-0.3,0.3-0.9,0-1.3
		C128.8,182.2,128.2,182.2,127.8,182.5L127.8,182.5L127.8,182.5z"/>
</g>
<g>
	<g id="XMLID_3_">
		<path class="st7" d="M133.3,197.3v-9.7h-9.7v9.7H133.3z"/>
		<polygon class="st4" points="126.1,194.9 130.9,194.9 130.9,194.9 130.9,190 130.9,190 126.1,190 126.1,190 126.1,190 		"/>
	</g>
</g>
<rect x="181.9" y="187.6" class="st4" width="9.7" height="21.4"/>
<g>
	<path class="st5" d="M186.1,182.5c-0.4,0.4-0.3,0.9,0,1.3c0.3,0.3,0.9,0.3,1.3,0c0.3-0.3,0.3-0.9,0-1.3
		C187,182.2,186.4,182.2,186.1,182.5L186.1,182.5L186.1,182.5z"/>
</g>
<g>
	<g>
		<path class="st6" d="M191.6,197.3v-9.7h-9.7v9.7H191.6z"/>
		<polygon class="st5" points="186.7,195.9 190.2,192.5 190.1,192.5 186.7,189 186.7,189 183.3,192.5 183.3,192.5 183.3,192.5 		"/>
	</g>
</g>
<g id="INSERT_10_">
	<g id="CIRCLE_10_">
		<path class="st7" d="M185.5,192.5c0,0.6,0.5,1.2,1.2,1.2c0.6,0,1.2-0.5,1.2-1.2c0-0.6-0.5-1.2-1.2-1.2
			C186.1,191.3,185.5,191.8,185.5,192.5L185.5,192.5L185.5,192.5z"/>
	</g>
</g>
<rect x="162.5" y="187.6" class="st4" width="9.7" height="21.4"/>
<g>
	<polygon class="st5" points="167.8,181.8 167.8,182.7 168.7,182.7 168.7,183.6 167.8,183.6 167.8,184.5 166.9,184.5 166.9,183.6 
		166,183.6 166,182.7 166.9,182.7 166.9,181.8 	"/>
</g>
<path class="st8" d="M172.2,197.3v-9.7h-9.7v9.7H172.2z"/>
<g>
	<g>
		<g id="INSERT_9_">
			<g id="CIRCLE_9_">
				<path class="st5" d="M168.1,191.7c0.5,0.5,1.2,0.5,1.6,0s0.5-1.2,0-1.6c-0.5-0.5-1.2-0.5-1.6,0
					C167.7,190.5,167.7,191.2,168.1,191.7L168.1,191.7L168.1,191.7z"/>
			</g>
		</g>
		<g id="INSERT_8_">
			<g id="CIRCLE_8_">
				<path class="st5" d="M164.9,194.9c0.5,0.5,1.2,0.5,1.6,0c0.5-0.5,0.5-1.2,0-1.6c-0.5-0.5-1.2-0.5-1.6,0
					C164.5,193.7,164.5,194.4,164.9,194.9L164.9,194.9L164.9,194.9z"/>
			</g>
		</g>
	</g>
	<g>
		<g id="INSERT_7_">
			<g id="CIRCLE_7_">
				<path class="st5" d="M166.6,191.7c0.5-0.5,0.5-1.2,0-1.6c-0.5-0.5-1.2-0.5-1.6,0c-0.5,0.5-0.5,1.2,0,1.6
					C165.4,192.2,166.1,192.2,166.6,191.7L166.6,191.7L166.6,191.7z"/>
			</g>
		</g>
		<g id="INSERT_6_">
			<g id="CIRCLE_6_">
				<path class="st5" d="M169.8,194.9c0.5-0.5,0.5-1.2,0-1.6c-0.5-0.5-1.2-0.5-1.6,0c-0.5,0.5-0.5,1.2,0,1.6
					C168.6,195.3,169.3,195.3,169.8,194.9L169.8,194.9L169.8,194.9z"/>
			</g>
		</g>
	</g>
</g>
<rect x="201.2" y="187.6" class="st4" width="9.7" height="21.4"/>
<g>
	<polyline class="st5" points="206.1,181.6 207.7,183.2 206.1,184.8 204.5,183.2 	"/>
</g>
<g>
	<g>
		<path class="st6" d="M210.9,197.3v-9.7h-9.7v9.7H210.9z"/>
		<polygon class="st8" points="206.1,195.9 209.5,192.5 209.5,192.5 206.1,189 206.1,189 202.6,192.5 202.6,192.5 202.6,192.5 		"/>
	</g>
</g>
<rect x="220.8" y="187.6" class="st4" width="9.7" height="21.4"/>
<g>
	<path class="st5" d="M227.2,183.9c0-0.9-0.7-1.5-1.5-1.5c-0.9,0-1.5,0.7-1.5,1.5"/>
</g>
<path class="st7" d="M230.5,197.3v-9.7h-9.7v9.7H230.5z"/>
<g>
	<g>
		<g id="INSERT_5_">
			<g id="CIRCLE_5_">
				<path class="st5" d="M226.4,191.7c0.5,0.5,1.2,0.5,1.6,0c0.5-0.5,0.5-1.2,0-1.6c-0.5-0.5-1.2-0.5-1.6,0
					C225.9,190.5,225.9,191.2,226.4,191.7L226.4,191.7L226.4,191.7z"/>
			</g>
		</g>
		<g id="INSERT_4_">
			<g id="CIRCLE_4_">
				<path class="st5" d="M223.2,194.9c0.5,0.5,1.2,0.5,1.6,0c0.5-0.5,0.5-1.2,0-1.6c-0.5-0.5-1.2-0.5-1.6,0
					C222.8,193.7,222.8,194.4,223.2,194.9L223.2,194.9L223.2,194.9z"/>
			</g>
		</g>
	</g>
	<g>
		<g id="INSERT_3_">
			<g id="CIRCLE_3_">
				<path class="st5" d="M224.9,191.7c0.5-0.5,0.5-1.2,0-1.6c-0.5-0.5-1.2-0.5-1.6,0c-0.5,0.5-0.5,1.2,0,1.6
					C223.7,192.2,224.4,192.2,224.9,191.7L224.9,191.7L224.9,191.7z"/>
			</g>
		</g>
		<g id="INSERT_2_">
			<g id="CIRCLE_2_">
				<path class="st5" d="M228,194.9c0.5-0.5,0.5-1.2,0-1.6c-0.5-0.5-1.2-0.5-1.6,0c-0.5,0.5-0.5,1.2,0,1.6S227.6,195.3,228,194.9
					L228,194.9L228,194.9z"/>
			</g>
		</g>
	</g>
</g>
<rect x="240.2" y="187.6" class="st4" width="9.7" height="21.4"/>
<g>
	<polygon class="st5" points="245.5,181.8 245.5,182.7 246.4,182.7 246.4,183.6 245.5,183.6 245.5,184.5 244.7,184.5 244.7,183.6 
		243.8,183.6 243.8,182.7 244.7,182.7 244.7,181.8 	"/>
</g>
<g>
	<g>
		<path class="st6" d="M250,197.3v-9.7h-9.7v9.7H250z"/>
		<polygon class="st5" points="245.1,195.9 248.5,192.5 248.5,192.5 245.1,189 245.1,189 241.7,192.5 241.7,192.5 241.7,192.5 		"/>
	</g>
</g>
<g id="INSERT_1_">
	<g id="CIRCLE_1_">
		<path class="st7" d="M243.9,192.5c0,0.6,0.5,1.2,1.2,1.2s1.2-0.5,1.2-1.2c0-0.6-0.5-1.2-1.2-1.2S243.9,191.8,243.9,192.5
			L243.9,192.5L243.9,192.5z"/>
	</g>
</g>
<rect x="259.7" y="187.6" class="st4" width="9.7" height="21.4"/>
<g>
	<path class="st5" d="M263.9,182.5c-0.4,0.4-0.3,0.9,0,1.3c0.3,0.3,0.9,0.3,1.3,0c0.3-0.3,0.3-0.9,0-1.3
		C264.8,182.2,264.3,182.2,263.9,182.5L263.9,182.5L263.9,182.5z"/>
</g>
<g>
	<g id="XMLID_1_">
		<path class="st7" d="M269.4,197.3v-9.7h-9.7v9.7H269.4z"/>
		<polygon class="st4" points="262.1,194.9 267,194.9 267,194.9 267,190 267,190 262.1,190 262.1,190 262.1,190 		"/>
	</g>
</g>
<g>
	<g>
		<path class="st5" d="M109.9,57.9c0-7.7-6.5-14-14.5-14c-0.7,0-1.5,0.1-2.2,0.2C87,45,82.9,49.5,80.5,52.9
			c-2.3-3.4-6.5-7.9-12.7-8.8c-0.7-0.1-1.5-0.2-2.2-0.2c-8,0-14.5,6.3-14.5,14s6.5,14,14.5,14c0.7,0,1.5-0.1,2.2-0.2
			c6.2-0.9,10.4-5.4,12.7-8.8c2.3,3.4,6.5,7.9,12.7,8.8c0.7,0.1,1.5,0.2,2.2,0.2C103.4,71.9,109.9,65.6,109.9,57.9z M67.1,66.8
			c-0.5,0.1-1,0.1-1.5,0.1c-5.3,0-9.5-4.1-9.5-9c0-5,4.3-9,9.5-9c0.5,0,1,0,1.5,0.1c5.9,0.8,9.4,6.6,10.6,8.9
			C76.6,60.2,73,66,67.1,66.8z M83.3,57.9c1.2-2.3,4.8-8.1,10.6-8.9c0.5-0.1,1-0.1,1.5-0.1c5.3,0,9.5,4,9.5,9s-4.3,9-9.5,9
			c-0.5,0-1,0-1.5-0.1C88.1,66,84.5,60.2,83.3,57.9z"/>
		<rect x="61.6" y="56.6" class="st5" width="8.7" height="2.8"/>
		<polygon class="st5" points="96.4,59.4 99.4,59.4 99.4,56.6 96.4,56.6 96.4,53.6 93.6,53.6 93.6,56.6 90.7,56.6 90.7,59.4 
			93.6,59.4 93.6,62.3 96.4,62.3 		"/>
		<g>
			<path class="st5" d="M111,44.5c-0.1-0.3-0.3-0.5-0.4-0.7c-0.2-0.2-0.4-0.3-0.6-0.4c-0.2-0.1-0.5-0.2-0.8-0.2s-0.6,0.1-0.8,0.2
				c-0.2,0.1-0.5,0.3-0.6,0.4c-0.2,0.2-0.3,0.4-0.4,0.7c-0.1,0.2-0.2,0.5-0.2,0.8s0.1,0.6,0.2,0.8c0.1,0.3,0.3,0.5,0.4,0.7
				s0.4,0.3,0.6,0.4c0.2,0.1,0.5,0.2,0.8,0.2s0.5-0.1,0.8-0.2c0.2-0.1,0.5-0.2,0.6-0.4c0.2-0.2,0.3-0.4,0.4-0.7s0.2-0.5,0.2-0.8
				C111.1,45,111.1,44.7,111,44.5z M110.5,45.9c-0.1,0.2-0.2,0.4-0.3,0.5c-0.1,0.1-0.3,0.3-0.5,0.3c-0.2,0.1-0.4,0.1-0.6,0.1
				s-0.4,0-0.6-0.1s-0.3-0.2-0.5-0.3c-0.1-0.1-0.2-0.3-0.3-0.5c-0.1-0.2-0.1-0.4-0.1-0.6c0-0.2,0-0.4,0.1-0.6
				c0.1-0.2,0.2-0.4,0.3-0.5c0.1-0.1,0.3-0.3,0.5-0.3c0.2-0.1,0.4-0.1,0.6-0.1s0.4,0,0.6,0.1s0.3,0.2,0.5,0.3
				c0.1,0.1,0.3,0.3,0.3,0.5c0.1,0.2,0.1,0.4,0.1,0.6C110.7,45.5,110.6,45.7,110.5,45.9z"/>
			<path class="st5" d="M109.5,45.5c0.1-0.1,0.2-0.1,0.3-0.2c0.1-0.1,0.1-0.2,0.1-0.3c0-0.2-0.1-0.4-0.2-0.5s-0.4-0.2-0.7-0.2
				c-0.1,0-0.2,0-0.3,0c-0.1,0-0.2,0-0.3,0v2h0.5v-0.7h0.2l0.4,0.7h0.6L109.5,45.5z M109,45.2c-0.1,0-0.1,0-0.2,0v-0.5
				c0,0,0.1,0,0.2,0c0.2,0,0.3,0.1,0.3,0.3S109.3,45.2,109,45.2z"/>
		</g>
	</g>
	<rect x="117.3" y="45.8" class="st5" width="127.6" height="24.5"/>
	<g>
		<path class="st0" d="M133.6,51v1.5h-7.8v4.6h7v1.5h-7v4.9h7.8V65h-9.5V51H133.6L133.6,51z"/>
		<path class="st0" d="M136.6,51h4.7c4.9,0,6.4,3.3,6.4,6.9c0,3.8-1.2,7.1-6.5,7.1h-4.6L136.6,51L136.6,51z M138.4,52.5v11h3
			c3.9,0,4.4-2.5,4.4-5.5c0-2.8-0.8-5.5-4.5-5.5H138.4z"/>
		<path class="st0" d="M158.1,51h1.7v8.8c0,3.2-1.2,5.5-5.2,5.5c-3.9,0-5.1-1.9-5.1-5.3v-9h1.7v8.8c0,3,1,4,3.4,4
			c2.6,0,3.4-1.2,3.4-4.2L158.1,51L158.1,51z"/>
		<path class="st0" d="M172.9,64.4c-1.1,0.6-2.6,0.9-4.1,0.9c-3.9,0-6.5-2.1-6.5-7.1c0-4.7,2.7-7.3,6.7-7.3c1.4,0,2.9,0.3,3.7,0.8
			l-0.6,1.6c-0.8-0.6-2.1-1-3.2-1c-3.2,0-4.8,2.1-4.8,5.7c0,3.8,1.6,5.7,4.7,5.7c1.4,0,2.8-0.4,3.5-0.8L172.9,64.4z"/>
		<path class="st0" d="M174.7,65.1l4.9-14h1.9l4.9,14h-1.8l-1.3-3.7h-5.6l-1.2,3.7H174.7z M180.5,52.9l-2.3,7h4.7L180.5,52.9z"/>
		<path class="st0" d="M199.2,52.5h-4.8V65h-1.7V52.5h-4.9V51h11.4V52.5z"/>
		<path class="st0" d="M201.7,63.5h3.9v-11h-3.9V51h9.7v1.5h-4v11h4V65h-9.7V63.5z"/>
		<path class="st0" d="M225.2,58.1c0,4.2-2,7.2-5.9,7.2c-4.1,0-5.8-2.8-5.8-7.2c0-4.3,1.9-7.3,5.9-7.3
			C223.5,50.8,225.2,53.4,225.2,58.1z M223.4,58.1c0-3.7-0.9-5.7-4-5.7s-4,1.9-4,5.7c0,3.6,0.8,5.7,3.9,5.7
			C222.4,63.8,223.4,61.5,223.4,58.1z"/>
		<path class="st0" d="M228.8,65.1h-1.7V51h1.9l6.8,11.2V51h1.6v14h-1.8l-6.9-11.5L228.8,65.1L228.8,65.1z"/>
	</g>
</g>
</svg>
